<svg width="0" height="0" class="hidden">
  <symbol xmlns="http://www.w3.org/2000/svg" viewBox="0 0 48 48" id="icon1">
    <g clip-path="url(#clip0_1_42)">
      <path d="M42.5886 12.5253H37.519V7.45567C37.519 6.55931 37.1629 5.69966 36.5291 5.06583C35.8952 4.43201 35.0356 4.07593 34.1392 4.07593H13.8608C12.9644 4.07593 12.1047 4.43201 11.4709 5.06583C10.8371 5.69966 10.481 6.55931 10.481 7.45567V12.5253H5.41139C4.06684 12.5253 2.77736 13.0594 1.82662 14.0102C0.875886 14.9609 0.341766 16.2504 0.341766 17.5949V41.2531C0.341766 42.1495 0.697846 43.0092 1.33167 43.643C1.9655 44.2768 2.82515 44.6329 3.72151 44.6329H44.2785C45.1748 44.6329 46.0345 44.2768 46.6683 43.643C47.3021 43.0092 47.6582 42.1495 47.6582 41.2531V17.5949C47.6582 16.2504 47.1241 14.9609 46.1734 14.0102C45.2226 13.0594 43.9331 12.5253 42.5886 12.5253ZM13.8608 7.45567H34.1392V12.5253H13.8608V7.45567ZM44.2785 41.2531H3.72151V26.0443H17.2405V34.4936H30.7595V26.0443H44.2785V41.2531ZM20.6202 26.0443H27.3797V31.1139H20.6202V26.0443ZM3.72151 22.6645V17.5949C3.72151 17.1467 3.89955 16.7169 4.21647 16.4C4.53338 16.0831 4.9632 15.905 5.41139 15.905H42.5886C43.0368 15.905 43.4666 16.0831 43.7835 16.4C44.1004 16.7169 44.2785 17.1467 44.2785 17.5949V22.6645H3.72151Z"></path>
    </g>
    <defs>
      <clipPath id="clip0_1_42">
        <rect width="48" height="40.7089" fill="white" transform="translate(0 4)"></rect>
      </clipPath>
    </defs>
  </symbol>
  <symbol xmlns="http://www.w3.org/2000/svg" viewBox="0 0 48 48" id="icon2">
    <g clip-path="url(#clip0_1_50)">
      <path opacity="0.15" d="M43.65 13.7502H4.35004C4.33204 13.7502 4.32004 13.7621 4.32004 13.7799V19.1851C4.32004 22.7294 7.26003 25.6039 10.878 25.6039C13.32 25.6039 15.45 24.3 16.584 22.3619C16.758 22.0597 17.088 21.87 17.442 21.87C17.796 21.87 18.12 22.0597 18.3 22.3619C19.428 24.3 21.558 25.6039 24 25.6039C26.448 25.6039 28.584 24.2941 29.706 22.3501C29.88 22.0537 30.198 21.87 30.54 21.87H30.576C30.924 21.87 31.236 22.0537 31.41 22.3501C32.538 24.2941 34.674 25.6039 37.122 25.6039C40.74 25.6039 43.68 22.7294 43.68 19.1851V13.7799C43.68 13.7621 43.668 13.7502 43.65 13.7502Z" fill="#00A0C1"></path>
      <path d="M46.2 9.48885V1.89659C46.2 0.847537 45.342 0 44.28 0H3.72003C2.65803 0 1.80004 0.847537 1.80004 1.89659V9.48885C0.798037 9.54812 3.71756e-05 10.372 3.71756e-05 11.3795V19.1851C-0.00380525 20.6197 0.290253 22.0398 0.864037 23.3576C1.12204 23.9622 1.44004 24.5311 1.80004 25.0705V45.518C1.80004 46.5612 2.65803 47.4146 3.72003 47.4146H44.28C45.342 47.4146 46.2 46.5671 46.2 45.518V25.0705C46.5657 24.5298 46.879 23.9563 47.136 23.3576C47.706 22.036 48 20.6313 48 19.1851V11.3795C48 10.372 47.202 9.54812 46.2 9.48885ZM6.12003 4.26732H41.88V9.48293H6.12003V4.26732ZM27.84 43.1532H20.16V36.9834H27.84V43.1532ZM41.904 43.1532H31.68V35.0868C31.68 34.0378 30.822 33.1902 29.76 33.1902H18.24C17.178 33.1902 16.32 34.0378 16.32 35.0868V43.1532H6.12003V28.7985C6.29403 28.8814 6.47403 28.9644 6.66003 29.0355C7.99803 29.5927 9.42003 29.8712 10.884 29.8712C12.348 29.8712 13.764 29.5927 15.108 29.0355C15.936 28.6918 16.716 28.2532 17.43 27.7257C17.442 27.7198 17.454 27.7198 17.466 27.7257C18.1822 28.2554 18.9622 28.6954 19.788 29.0355C21.126 29.5927 22.548 29.8712 24.012 29.8712C25.476 29.8712 26.892 29.5927 28.236 29.0355C29.064 28.6918 29.844 28.2532 30.558 27.7257C30.57 27.7198 30.582 27.7198 30.594 27.7257C31.3102 28.2554 32.0902 28.6954 32.916 29.0355C34.254 29.5927 35.676 29.8712 37.14 29.8712C38.604 29.8712 40.02 29.5927 41.364 29.0355C41.544 28.9585 41.724 28.8814 41.904 28.7985V43.1532V43.1532ZM43.68 19.1851C43.68 22.7294 40.74 25.6039 37.122 25.6039C34.674 25.6039 32.538 24.2941 31.41 22.3501C31.236 22.0537 30.924 21.87 30.576 21.87H30.54C30.198 21.87 29.88 22.0537 29.706 22.3501C29.1304 23.3417 28.2992 24.1652 27.297 24.7367C26.2948 25.3082 25.1572 25.6074 24 25.6039C21.558 25.6039 19.428 24.3 18.3 22.3619C18.12 22.0597 17.796 21.87 17.442 21.87C17.088 21.87 16.758 22.0597 16.584 22.3619C16.005 23.3498 15.1728 24.1695 14.1711 24.7387C13.1694 25.3078 12.0336 25.6062 10.878 25.6039C7.26003 25.6039 4.32003 22.7294 4.32003 19.1851V13.7799C4.32003 13.7621 4.33203 13.7502 4.35003 13.7502H43.65C43.668 13.7502 43.68 13.7621 43.68 13.7799V19.1851Z"></path>
    </g>
    <defs>
      <clipPath id="clip0_1_50">
        <rect width="48" height="47.4146" fill="white"></rect>
      </clipPath>
    </defs>
  </symbol>
  <symbol xmlns="http://www.w3.org/2000/svg" viewBox="0 0 48 38" id="icon3">
    <g clip-path="url(#clip0_1_58)">
      <path d="M29.1419 8.62415H41.1398V12.0695H29.1419V8.62415Z"></path>
      <path d="M29.1419 17.2375H41.1398V20.6829H29.1419V17.2375Z"></path>
      <path d="M29.1419 25.8506H41.1398V29.2959H29.1419V25.8506Z"></path>
      <path d="M44.5679 0.0111084H3.43234C2.52347 0.0120205 1.65208 0.375302 1.00941 1.02123C0.366737 1.66715 0.00528678 2.54295 0.00437927 3.45643V34.4643C0.00528678 35.3778 0.366737 36.2536 1.00941 36.8995C1.65208 37.5454 2.52347 37.9087 3.43234 37.9096H44.5679C45.4766 37.9082 46.3477 37.5448 46.9903 36.899C47.6329 36.2532 47.9945 35.3776 47.9958 34.4643V3.45643C47.9949 2.54295 47.6335 1.66715 46.9908 1.02123C46.3481 0.375302 45.4767 0.0120205 44.5679 0.0111084ZM3.43234 3.45643H22.2861V34.4643H3.43234V3.45643ZM25.7141 34.4643V3.45643H44.5679L44.5713 34.4643H25.7141Z"></path>
    </g>
    <defs>
      <clipPath id="clip0_1_58">
        <rect width="48" height="37.92" fill="white"></rect>
      </clipPath>
    </defs>
  </symbol>
   <symbol xmlns="http://www.w3.org/2000/svg" viewBox="0 0 49 48" id="icon4">
    <g clip-path="url(#clip0_1_97)">
      <g clip-path="url(#clip1_1_97)">
        <path d="M24.8406 22.8022C29.1448 22.8022 32.4925 19.3069 32.4925 15.0171C32.4925 10.7273 28.9854 7.39087 24.6812 7.39087C20.377 7.39087 17.0293 10.8862 17.0293 15.0171C17.0293 19.3069 20.5364 22.8022 24.8406 22.8022ZM24.6812 10.5685C24.8406 10.5685 24.8406 10.5685 24.6812 10.5685C27.2318 10.5685 29.3042 12.6339 29.3042 15.176C29.3042 17.7181 27.2318 19.6246 24.6812 19.6246C22.1305 19.6246 20.2176 17.5592 20.2176 15.176C20.2176 12.6339 22.2899 10.5685 24.6812 10.5685V10.5685Z" fill="#00A0C1"></path>
        <path d="M48.4339 21.8487C45.405 19.1477 41.4197 17.7178 37.2749 17.8767H35.9996C35.6808 19.1477 35.2025 20.2599 34.5648 21.2132C35.5213 21.0543 36.3184 21.0543 37.2749 21.0543C40.3038 20.8954 43.3327 21.8487 45.7239 23.5964V35.0357H48.9122V22.3253L48.4339 21.8487Z" fill="#00A0C1"></path>
        <path d="M33.6084 7.70814C34.4055 5.80158 36.6373 4.8483 38.7097 5.6427C40.6226 6.4371 41.5791 8.66141 40.782 10.7269C40.1444 12.1568 38.7097 13.1101 37.2749 13.1101C36.9561 13.1101 36.4779 13.1101 36.159 12.9512C36.3184 13.7456 36.3184 14.54 36.3184 15.1755V16.1288C36.6373 16.1288 36.9561 16.2876 37.2749 16.2876C41.2603 16.2876 44.4486 13.1101 44.4486 9.29693C44.4486 5.32494 41.2603 2.14734 37.4343 2.14734C34.8837 2.14734 32.6519 3.41838 31.3766 5.6427C32.1737 6.11934 32.9707 6.75486 33.6084 7.70814V7.70814Z" fill="#00A0C1"></path>
        <path d="M15.4351 21.3721C14.7975 20.4189 14.3192 19.3067 14.0004 18.0357H12.7251C8.58031 17.8768 4.59495 19.3067 1.56607 21.8488L1.08783 22.3254V35.0358H4.27612V23.5965C6.82675 21.8488 9.69621 20.8955 12.7251 21.0544C13.6816 21.0544 14.6381 21.2133 15.4351 21.3721Z" fill="#00A0C1"></path>
        <path d="M12.7251 16.1294C13.044 16.1294 13.3628 16.1294 13.6816 15.9705V15.0172C13.6816 14.2228 13.6816 13.4284 13.841 12.7929C13.5222 12.9518 13.044 12.9518 12.7251 12.9518C10.6527 12.9518 8.89917 11.2041 8.89917 9.13868C8.89917 7.07324 10.6527 5.32556 12.7251 5.32556C14.3193 5.32556 15.754 6.27884 16.3917 7.70876C17.0293 6.91436 17.9858 6.11996 18.7829 5.48444C16.7105 2.14796 12.4063 1.0358 9.05859 3.10124C5.71088 5.16668 4.59498 9.45644 6.66737 12.7929C7.94269 14.8584 10.1745 16.1294 12.7251 16.1294V16.1294Z" fill="#00A0C1"></path>
        <path d="M37.9126 31.3816L37.5938 30.905C34.4055 27.4096 29.9419 25.3442 25.1594 25.5031C20.377 25.3442 15.754 27.4096 12.5657 30.905L12.2469 31.3816V43.4565C12.2469 44.8864 13.3628 46.1574 14.9569 46.1574H35.362C36.7967 46.1574 38.072 44.8864 38.072 43.4565V31.3816H37.9126ZM34.7243 42.9798H15.4351V32.4938C17.9858 29.9517 21.4929 28.6807 25.1594 28.6807C28.6666 28.5218 32.1737 29.9517 34.7243 32.4938V42.9798Z" fill="#00A0C1"></path>
      </g>
    </g>
    <defs>
      <clipPath id="clip0_1_97">
        <rect width="48" height="48" fill="white" transform="translate(0.5)"></rect>
      </clipPath>
      <clipPath id="clip1_1_97">
        <rect width="48" height="44.2105" fill="white" transform="translate(1 2)"></rect>
      </clipPath>
    </defs>
  </symbol>
  <symbol xmlns="http://www.w3.org/2000/svg" viewBox="0 0 49 48" id="icon5">
    <g clip-path="url(#clip0_1_109)">
      <path d="M44.1502 22.2822C43.5747 22.2864 43.0047 22.3962 42.4674 22.6064L36.7271 17.8217C36.8684 17.3001 36.9689 16.7589 36.9689 16.1886C36.9689 12.8103 34.3022 10.095 30.9844 10.095C27.6667 10.095 25 12.8103 25 16.1886C25 17.1538 25.2394 18.0532 25.6272 18.8625L18.6636 27.2424C18.3849 27.1893 18.1022 27.1607 17.8186 27.1571C17.3902 27.1571 16.9856 27.2302 16.593 27.3374L10.4578 21.0903C10.5655 20.693 10.6373 20.281 10.6373 19.8447C10.6373 17.1441 8.50204 14.9699 5.84973 14.9699C3.19742 14.9699 1.06216 17.1441 1.06216 19.8447C1.06216 22.5454 3.19742 24.7196 5.84973 24.7196C6.27822 24.7196 6.68277 24.6465 7.07535 24.5393L13.2106 30.7864C13.0955 31.1914 13.0351 31.6104 13.0311 32.032C13.0311 34.7326 15.1663 36.9069 17.8186 36.9069C20.471 36.9069 22.6062 34.7326 22.6062 32.032C22.6062 31.4543 22.4913 30.9107 22.3118 30.3964L29.2849 22.0068C29.8282 22.1676 30.3908 22.2822 30.9844 22.2822C31.9291 22.2769 32.8589 22.0421 33.6966 21.5973L39.4393 26.382C39.3942 26.638 39.3686 26.8971 39.3627 27.1571C39.3627 29.8578 41.4979 32.032 44.1502 32.032C46.8026 32.032 48.9378 29.8578 48.9378 27.1571C48.9378 24.4564 46.8026 22.2822 44.1502 22.2822Z" fill="#00A0C1"></path>
    </g>
    <defs>
      <clipPath id="clip0_1_109">
        <rect width="48" height="48" fill="white" transform="translate(0.5)"></rect>
      </clipPath>
    </defs>
  </symbol>
  <symbol xmlns="http://www.w3.org/2000/svg" viewBox="0 0 49 48" id="icon6">
    <g clip-path="url(#clip0_1_116)">
      <path d="M16.0641 33.9949C15.2531 33.1802 15.6759 33.4099 13.7196 32.8839C12.832 32.6449 12.0517 32.1855 11.3461 31.6352L7.1116 42.0639C6.70187 43.0736 7.4672 44.1705 8.55174 44.1292L13.4695 43.9408L16.8519 47.5296C17.5985 48.3208 18.9089 48.0742 19.3187 47.0646L24.1767 35.1002C23.1649 35.6664 22.0421 35.9983 20.8811 35.9983C19.0611 35.9983 17.3512 35.2867 16.0641 33.9949ZM42.7276 42.0639L38.4931 31.6352C37.7875 32.1864 37.0072 32.6449 36.1196 32.8839C34.1531 33.4127 34.5843 33.1821 33.7751 33.9949C32.488 35.2867 30.7772 35.9983 28.9572 35.9983C27.7961 35.9983 26.6733 35.6655 25.6616 35.1002L30.5196 47.0646C30.9293 48.0742 32.2407 48.3208 32.9864 47.5296L36.3697 43.9408L41.2875 44.1292C42.372 44.1705 43.1373 43.0727 42.7276 42.0639ZM31.5463 31.8733C32.9724 30.4155 33.1357 30.5411 35.1667 29.9852C36.4631 29.6299 37.4767 28.5939 37.8239 27.2683C38.522 24.6058 38.3409 24.9274 40.2459 22.9792C41.1951 22.0089 41.5656 20.5942 41.2184 19.2686C40.5212 16.608 40.5203 16.9792 41.2184 14.3158C41.5656 12.9902 41.1951 11.5755 40.2459 10.6052C38.3409 8.65706 38.522 8.97769 37.8239 6.31613C37.4767 4.9905 36.4631 3.95456 35.1667 3.59925C32.5645 2.88581 32.8781 3.07238 30.9713 1.12331C30.0221 0.153002 28.638 -0.226685 27.3416 0.128627C24.7404 0.841127 25.1035 0.842064 22.4976 0.128627C21.2012 -0.226685 19.8171 0.152065 18.8679 1.12331C16.9629 3.07144 17.2765 2.88581 14.6735 3.59925C13.3771 3.95456 12.3635 4.9905 12.0163 6.31613C11.3191 8.97769 11.4992 8.65706 9.59427 10.6052C8.64507 11.5755 8.2736 12.9902 8.62174 14.3158C9.31894 16.9746 9.31987 16.6033 8.62174 19.2677C8.27454 20.5933 8.64507 22.008 9.59427 22.9792C11.4992 24.9274 11.3181 24.6058 12.0163 27.2683C12.3635 28.5939 13.3771 29.6299 14.6735 29.9852C16.7623 30.5571 16.9181 30.4671 18.2929 31.8733C19.5277 33.1361 21.4513 33.3621 22.9353 32.4189C23.5288 32.0405 24.2172 31.8396 24.9201 31.8396C25.623 31.8396 26.3114 32.0405 26.9048 32.4189C28.3879 33.3621 30.3115 33.1361 31.5463 31.8733ZM16.1145 16.4946C16.1145 11.523 20.0569 7.49269 24.9196 7.49269C29.7823 7.49269 33.7247 11.523 33.7247 16.4946C33.7247 21.4661 29.7823 25.4964 24.9196 25.4964C20.0569 25.4964 16.1145 21.4661 16.1145 16.4946Z" fill="#00A0C1"></path>
    </g>
    <defs>
      <clipPath id="clip0_1_116">
        <rect width="35.84" height="48" fill="white" transform="translate(7)"></rect>
      </clipPath>
    </defs>
  </symbol>
   <symbol xmlns="http://www.w3.org/2000/svg" viewBox="0 0 25 30" id="icon7">
    <g clip-path="url(#clip0_1_183)">
      <path d="M0.300003 0.799988L24.3 15.2L0.300003 29.6V0.799988Z"></path>
    </g>
    <defs>
      <clipPath id="clip0_1_183">
        <rect width="24" height="28.8" fill="white" transform="translate(0.300003 0.799988)"></rect>
      </clipPath>
    </defs>
  </symbol>
  <symbol xmlns="http://www.w3.org/2000/svg" viewBox="0 0 32 32" id="icon8">
    <path fill-rule="evenodd" clip-rule="evenodd" d="M18.2367 8.77151C17.7729 9.09308 17.2497 9.31905 16.6976 9.43623C16.1456 9.55342 15.5757 9.55949 15.0212 9.45407C14.4668 9.34865 13.9389 9.13385 13.4684 8.82223C12.9979 8.5106 12.5941 8.10838 12.2807 7.63904C11.9673 7.1697 11.7505 6.64263 11.643 6.08861C11.5354 5.53458 11.5393 4.96468 11.6544 4.41218C11.7695 3.85967 11.9935 3.33562 12.3133 2.8706C12.6331 2.40559 13.0423 2.00893 13.517 1.70376C14.4544 1.08466 15.5986 0.861813 16.6998 1.08393C17.8009 1.30605 18.7693 1.95506 19.3933 2.88911C20.0173 3.82315 20.2462 4.96625 20.0298 6.06853C19.8135 7.17081 19.1696 8.14262 18.2388 8.77151H18.2367ZM17.0573 3.47176C16.8259 3.30528 16.5633 3.18706 16.2853 3.12415C16.0072 3.06124 15.7193 3.05493 15.4388 3.10558C15.1583 3.15622 14.8908 3.26281 14.6523 3.41897C14.4138 3.57514 14.2091 3.7777 14.0505 4.0146C13.8919 4.25149 13.7826 4.51788 13.7291 4.79789C13.6756 5.07791 13.679 5.36583 13.739 5.64451C13.7991 5.92319 13.9146 6.18694 14.0788 6.42004C14.2429 6.65315 14.4522 6.85086 14.6943 7.00139C15.162 7.28552 15.7214 7.37824 16.2558 7.26023C16.7902 7.14222 17.2585 6.82258 17.563 6.36789C17.8676 5.9132 17.985 5.35852 17.8908 4.81941C17.7966 4.2803 17.498 3.79833 17.0573 3.47389V3.47176ZM22.6036 3.53551C23.2164 3.12326 23.9539 2.93762 24.6889 3.01054C25.4239 3.08346 26.1105 3.41038 26.6304 3.93501C27.0009 4.30848 27.2741 4.76715 27.426 5.27079C27.578 5.77443 27.604 6.30766 27.5018 6.82371C27.3997 7.33975 27.1724 7.82284 26.8401 8.23061C26.5077 8.63838 26.0804 8.95837 25.5956 9.16251C25.0133 9.40598 24.3715 9.47011 23.7526 9.34669C23.1336 9.22328 22.5656 8.91794 22.1212 8.46976C21.7872 8.13405 21.5315 7.72865 21.3725 7.28259C21.2135 6.83653 21.155 6.36083 21.2013 5.88954C21.2476 5.41825 21.3975 4.96302 21.6403 4.55643C21.8831 4.14984 22.2127 3.80194 22.6057 3.53764L22.6036 3.53551ZM23.6236 6.95676C23.8231 7.15543 24.0933 7.2667 24.3749 7.2661C24.5143 7.2658 24.6523 7.23805 24.7809 7.18443C24.9096 7.13081 25.0265 7.05236 25.1249 6.95357C25.2232 6.85479 25.3012 6.73759 25.3543 6.60868C25.4073 6.47977 25.4345 6.34167 25.4342 6.20226C25.4339 6.06285 25.4062 5.92486 25.3525 5.79618C25.2989 5.66749 25.2205 5.55063 25.1217 5.45226C24.9238 5.25328 24.6564 5.13899 24.3758 5.13351C24.2357 5.13323 24.0968 5.16073 23.9674 5.21442C23.8379 5.26811 23.7204 5.34694 23.6216 5.44633C23.5228 5.54573 23.4447 5.66372 23.3918 5.7935C23.3388 5.92327 23.3122 6.06224 23.3133 6.20239C23.314 6.48539 23.4253 6.7569 23.6236 6.95889V6.95676ZM5.65455 25.3975H9.5008V27.5331H5.65455C4.98123 27.5271 4.3378 27.2542 3.8653 26.7745C3.39099 26.293 3.12533 25.6441 3.1258 24.9683V21.122C2.8397 21.1124 2.5585 21.045 2.29919 20.9237C2.03988 20.8025 1.80783 20.6299 1.61705 20.4165C1.41433 20.2112 1.25524 19.967 1.14934 19.6985C1.04343 19.4301 0.992909 19.1431 1.0008 18.8546V14.2179C1.00718 13.2149 1.40455 12.2565 2.1058 11.5446C2.80493 10.8413 3.75055 10.4396 4.7408 10.4333H8.6508C8.1234 11.0614 7.72612 11.788 7.48205 12.571H4.7408C4.30951 12.5834 3.89915 12.7597 3.5933 13.064C3.29287 13.3729 3.1251 13.787 3.1258 14.2179V18.9609H5.2508V24.9661C5.24587 25.024 5.25275 25.0823 5.27101 25.1375C5.28928 25.1926 5.31855 25.2435 5.35705 25.287C5.44247 25.353 5.54664 25.3902 5.65455 25.3933V25.3975ZM21.167 11.5468C20.8193 11.1957 20.4057 10.9167 19.9498 10.726C19.494 10.5353 19.0049 10.4365 18.5108 10.4354H13.2408C12.2502 10.4433 11.3029 10.8428 10.6058 11.5468C9.90455 12.2586 9.50718 13.217 9.5008 14.22V20.9733C9.4978 21.5531 9.71853 22.1118 10.1171 22.533C10.3081 22.7462 10.5402 22.9185 10.7994 23.0397C11.0587 23.161 11.3398 23.2286 11.6258 23.2385V28.1749C11.6238 28.5118 11.6885 28.8458 11.8161 29.1576C11.9438 29.4695 12.1319 29.7529 12.3696 29.9918C12.7521 30.3488 13.2344 30.5804 13.7508 30.6548H18.0008C18.5985 30.5763 19.1461 30.2797 19.5384 29.8219C19.9306 29.3642 20.1398 28.7776 20.1258 28.1749V23.2364C20.4119 23.2268 20.6931 23.1594 20.9524 23.0381C21.2117 22.9169 21.4438 22.7443 21.6346 22.5309C21.8371 22.3259 21.9961 22.082 22.102 21.814C22.2079 21.5459 22.2585 21.2592 22.2508 20.9711V14.2179C22.2523 13.2195 21.8633 12.2601 21.167 11.5446V11.5468ZM20.1258 21.0774H18.0008V28.1749C17.9987 28.2869 17.953 28.3937 17.8733 28.4724C17.837 28.5153 17.7913 28.5492 17.7396 28.5713C17.688 28.5935 17.6319 28.6032 17.5758 28.5999H14.1546C14.0435 28.5947 13.9384 28.5483 13.8598 28.4697C13.7812 28.3911 13.7347 28.2859 13.7296 28.1749V21.0774H11.6258V14.2179C11.6258 13.7865 11.7937 13.3721 12.0933 13.064C12.3992 12.7597 12.8095 12.5834 13.2408 12.571H18.5108C18.8327 12.5767 19.146 12.6762 19.4121 12.8574C19.6782 13.0386 19.8857 13.2936 20.0089 13.591C20.0898 13.7899 20.1296 14.0032 20.1258 14.2179V21.0774ZM26.0971 27.531H22.2508V25.3954H26.0758C26.1837 25.3924 26.2879 25.3552 26.3733 25.2891C26.4161 25.2473 26.4496 25.1969 26.4715 25.1413C26.4935 25.0856 26.5035 25.0259 26.5008 24.9661V18.9609H28.6258V14.2179C28.6265 13.787 28.4587 13.3729 28.1583 13.064C27.8524 12.7597 27.4421 12.5834 27.0108 12.571H24.2696C24.0256 11.788 23.6283 11.0613 23.1008 10.4333H27.0108C28.0012 10.4423 28.9481 10.8417 29.6458 11.5446C30.347 12.2565 30.7444 13.2149 30.7508 14.2179V18.8546C30.7508 19.4348 30.5319 19.9915 30.1367 20.4123C29.7414 20.8351 29.2017 21.088 28.6258 21.1199V24.9661C28.6258 25.644 28.3602 26.2921 27.8863 26.7724C27.4138 27.2521 26.7704 27.5249 26.0971 27.531ZM7.3758 2.99576C6.74346 2.99503 6.12531 3.18314 5.60057 3.536C5.07583 3.88885 4.66842 4.39037 4.43055 4.97626C4.19049 5.56195 4.12817 6.20536 4.25136 6.82623C4.37456 7.4471 4.67781 8.01797 5.1233 8.46764C5.56863 8.91678 6.13774 9.22298 6.75793 9.34712C7.37812 9.47126 8.02124 9.4077 8.60514 9.16456C9.18903 8.92142 9.68719 8.50975 10.036 7.98212C10.3848 7.45449 10.5684 6.83486 10.5633 6.20239C10.5633 5.35239 10.2276 4.53639 9.6283 3.93501C9.33323 3.63779 8.98233 3.40181 8.59577 3.24063C8.20921 3.07944 7.79462 2.99622 7.3758 2.99576ZM7.3758 7.27126C7.23565 7.27155 7.09684 7.24405 6.96739 7.19035C6.83793 7.13666 6.72041 7.05784 6.6216 6.95844C6.5228 6.85905 6.44468 6.74105 6.39176 6.61128C6.33885 6.48151 6.31218 6.34253 6.3133 6.20239C6.31385 5.92017 6.42577 5.64959 6.62473 5.44944C6.82368 5.24928 7.0936 5.13575 7.3758 5.13351C7.65714 5.13847 7.92548 5.25287 8.12386 5.45244C8.32223 5.652 8.43503 5.92102 8.4383 6.20239C8.43775 6.4846 8.32583 6.75519 8.12688 6.95534C7.92792 7.15549 7.658 7.26902 7.3758 7.27126Z" fill="#FFA62B"></path>
  </symbol>
  <symbol xmlns="http://www.w3.org/2000/svg" viewBox="0 0 32 32" id="icon9">
    <g clip-path="url(#clip0_1_198)">
      <path d="M29.8154 10.3646L27.8167 13.3708C28.7806 15.2933 29.2525 17.4249 29.1901 19.5746C29.1277 21.7243 28.5329 23.825 27.4592 25.6883H4.93666C3.54106 23.2672 2.96277 20.4609 3.28751 17.6853C3.61226 14.9097 4.82277 12.3126 6.73956 10.2791C8.65636 8.2456 11.1774 6.88388 13.929 6.39581C16.6806 5.90775 19.5162 6.31934 22.0154 7.56956L25.0217 5.57081C21.9609 3.60816 18.3304 2.72869 14.7109 3.07308C11.0913 3.41747 7.69176 4.96581 5.05609 7.47045C2.42042 9.97509 0.700875 13.2913 0.172515 16.8886C-0.355844 20.486 0.337506 24.1566 2.14166 27.3133C2.42524 27.8045 2.83243 28.2129 3.32276 28.498C3.81309 28.7831 4.36949 28.9349 4.93666 28.9383H27.4429C28.0156 28.9406 28.5787 28.7915 29.0752 28.5061C29.5718 28.2208 29.9841 27.8093 30.2704 27.3133C31.7676 24.7197 32.519 21.7627 32.4416 18.769C32.3642 15.7752 31.461 12.8611 29.8317 10.3483L29.8154 10.3646ZM13.9067 21.4796C14.2085 21.7817 14.5669 22.0214 14.9615 22.185C15.356 22.3486 15.7789 22.4327 16.206 22.4327C16.6331 22.4327 17.056 22.3486 17.4506 22.185C17.8451 22.0214 18.2036 21.7817 18.5054 21.4796L27.7029 7.68331L13.9067 16.8808C13.6045 17.1826 13.3648 17.5411 13.2012 17.9356C13.0377 18.3302 12.9535 18.7531 12.9535 19.1802C12.9535 19.6073 13.0377 20.0302 13.2012 20.4247C13.3648 20.8193 13.6045 21.1777 13.9067 21.4796Z" fill="#FFA62B"></path>
    </g>
    <defs>
      <clipPath id="clip0_1_198">
        <rect width="32" height="32" fill="white"></rect>
      </clipPath>
    </defs>
  </symbol>
</svg>